<?xml version="1.0" encoding="utf-8"?>
<!-- Generator: Adobe Illustrator 24.0.1, SVG Export Plug-In . SVG Version: 6.00 Build 0)  -->
<svg version="1.1" id="Layer_1" xmlns="http://www.w3.org/2000/svg" xmlns:xlink="http://www.w3.org/1999/xlink" x="0px" y="0px"
	 viewBox="0 0 1257.89 801.28" style="enable-background:new 0 0 1257.89 801.28;" xml:space="preserve">
<style type="text/css">
	.st0{fill:#020304;}
	.st1{fill:#20A637;}
	.st2{fill:none;stroke:#010202;stroke-width:1.7321;stroke-miterlimit:10;}
	.st3{fill:none;stroke:#000000;stroke-width:1.7321;stroke-miterlimit:10;}
	.st4{fill:none;}
	.st5{fill:none;stroke:#3AAA35;stroke-width:6;stroke-miterlimit:10;}
</style>
<path class="st0" d="M422.69,613.75c0.27,0,0.57,0,0.83,0v9.87c-0.47,0-0.97,0-1.47,0c-9.39,0.11-9.89,0.62-9.86,10.31h-9.96
	c0-0.22,0-0.4,0-0.58C402.37,611.72,400.5,613.89,422.69,613.75z"/>
<path class="st0" d="M315,613.79c24.71,0.11,21.85-2.76,21.98,22.11c0.13,19.13,1.23,18.01-17.79,18.04c-0.47,0-0.93,0-1.4,0
	c-23.82-0.22-21.08,2.29-21.35-21.45C296.55,612.44,295.08,613.68,315,613.79z M316.4,644.06c9.86,0.07,10.49-0.51,10.66-9.55
	c0.17-10.2-0.6-11-10.69-10.89c-9.46,0.07-9.96,0.58-9.93,10.24C306.44,643.52,306.91,643.99,316.4,644.06z"/>
<polygon class="st0" points="800.2,594.95 848.1,594.95 848.1,605 829.85,605 829.85,693.14 818.46,693.14 818.46,605 800.2,605 "/>
<rect x="521.05" y="594.95" class="st0" width="11.42" height="98.2"/>
<path class="st0" d="M423.52,613.75c21.12,0.11,19.29-1.56,19.25,19.89c0,0.18,0,0.36,0,0.54h-9.93c0.1-9.44-0.6-10.56-9.33-10.56
	V613.75z"/>
<path class="st0" d="M1051.65,641.74c0,22.43-5.63,34.67-11.99,41.35c-5.33,5.95-12.62,9.29-21.42,10.27l-0.83-9.18
	c11.69-1.09,22.38-10.85,22.38-42.15c0-24.79-7.69-38.33-23.72-38.33l0.13-9.15c9.76,0.22,16.72,2.83,21.95,7.41
	C1045.88,608.52,1051.65,621.19,1051.65,641.74z"/>
<path class="st0" d="M943.56,651.21v41.93h-11.39v-41.49l-21.95-56.7h11.99l8.89,24.65c2.53,6.82,5.2,14.56,7.43,22.14h0.3
	l7.16,3.48L943.56,651.21z"/>
<path class="st0" d="M412.2,633.93c0.03,9.58,0.5,10.06,10.09,10.13c0.5,0,0.93,0,1.4,0l-0.03,9.84c-0.63,0-1.3,0-1.97,0
	c-21.15,0.04-19.32,1.71-19.45-19.17c0-0.29,0-0.54,0-0.8H412.2z"/>
<path class="st1" d="M596.43,383.33c-2.96,0.29-6.3,0.76-9.39-0.83c-1.67-0.87-1.9-5.7-0.8-7.73c0.07-0.11,0.17-0.22,0.27-0.29
	c2.46-2.03,4.93-2.5,7.59-2.87c33.01-4.61,66.18-7.84,99.13-12.81c25.11-3.78,49.96-9.58,74.98-13.98c2.03-0.36,4.36,0.04,6.6,1.31
	c1.37,0.8,2.13,5.66,1.47,7.04c-0.13,0.29-0.3,0.54-0.47,0.8c-0.1,0.18-0.23,0.33-0.33,0.47c-1.1,1.38-2.36,1.89-3.73,2.25
	c-15.69,4.39-31.44,8.6-47.4,11.22c-5.16,0.83-8.36,2.32-10.36,5.66c-0.1,0.18-0.23,0.36-0.37,0.58c-0.97,1.74-1.67,3.99-2.17,6.9
	c-9.43,58.05-19.59,111.81-29.41,168.88c-1.23,6.97-2.43,13.98-3.6,20.98c0,0-0.03,0.11-0.07,0.33c-0.23,0.91-0.93,3.74-1.33,5.48
	c-0.03,0.04-0.03,0.07-0.03,0.07c-1.53,3.27-7.66,14.74-11.26,18.55c-0.23,0.25-0.37,0.29-0.5,0.18c-0.03,0-0.03,0,0-0.04
	c-0.87-0.94,1.03-12.23,1.37-16.12c0.17-3.38,0.53-7.04,0.7-8.2c7.96-49.77,15.92-99.58,23.85-149.35c0.23-2,0.43-3.96,1.1-9.73
	c-0.1,0.18-0.2,0.36-0.27,0.54c0-0.04,0-0.07,0-0.11c-0.77,1.45-1.4,2.61-1.87,3.52c-0.97,1.74-1.47,2.69-1.9,3.48
	c-13.96,21.42-27.28,43.38-41.44,64.58c-6.33,9.44-12.79,18.7-19.59,27.7c-11.56,15.32-27.51,27.99-43.57,37.61
	c-27.05,16.19-51.06,4.65-61.62-26.94c-10.19-30.35-8.69-61.79-4.23-92.79c10.89-75.83,34.61-145.64,68.32-210.55
	c1.53-2.94,3.1-5.88,4.66-8.82c4.73-8.79,9.63-17.46,14.72-26.1c3.4-5.74,6.86-11.44,10.39-17.1c3.46-5.52,6.99-11.04,10.59-16.48
	c3.8-5.74,7.66-11.4,11.59-17.06c0.97-1.42,2-2.8,3.1-4.17c8.13-10.49,18.22-19.82,28.81-26.94c20.65-13.87,39.4-5.05,46.96,20.18
	c9.26,30.97,3.56,61.97-1.27,92.79c-1.6,10.24-3.6,20.55-6.69,30.35c-0.43,1.38-1,2.72-1.7,4.03c0,0.04-0.03,0.07-0.03,0.07
	c-0.7,1.16-1.5,2.25-2.5,3.27c-1.6,1.71-6.2,0.87-6.79-1.34c-0.83-3.05-0.6-6.24-0.17-9.04c3.06-20.07,8.36-39.86,10.16-60.04
	c1.53-17.35,1.17-35.47-1.5-52.64c-3.4-21.74-17.22-27.34-33.84-14.27c-10.29,8.1-19.95,18.15-27.48,29.3
	c-9.59,14.16-18.79,28.53-27.48,43.13c-6.99,11.65-13.66,23.49-19.92,35.47c-36.37,68.97-61.42,143.21-69.48,224.89
	c-2.13,21.64-0.03,44.58,4.33,65.92c5.83,28.46,26.05,37.94,48.26,21.93c18.79-13.5,37.34-30.09,50.33-49.77
	c0.1-0.15,0.17-0.25,0.23-0.4c2.93-4.43,5.76-8.89,8.56-13.4c1.43-2.29,2.8-4.54,4.16-6.82c2.76-4.54,5.46-9.15,8.13-13.76
	c2.33-4.07,4.66-8.17,6.96-12.31c1.77-3.16,3.53-6.32,5.26-9.47c4.83-8.82,9.63-17.72,14.39-26.57c0.33-0.54,0.63-1.09,0.93-1.67
	c4.93-9.11,9.89-18.19,14.96-27.23c0-0.04,0.03-0.04,0.03-0.07c0,0,0-0.04,0.03-0.04c0.47-0.51,0.9-1.05,1.33-1.6
	c-0.03,0-0.03,0-0.07,0c0.1-0.15,0.23-0.25,0.33-0.4c-0.97-0.11-1.9-0.22-2.86-0.33c-0.23-0.04-0.47-0.04-0.7,0
	C660.72,376.29,628.61,380.21,596.43,383.33z"/>
<path class="st0" d="M870.62,641.74h4.46v8.57h-4.46v42.84h-11.39v-96.71c4.9-1.31,10.83-1.92,16.45-1.92c0.37,0,0.73,0,1.1,0.04
	l-0.23,9c-2.2,0-4.43,0.15-5.93,0.58V641.74z"/>
<path class="st0" d="M559.75,612.59c0.87,13.1,1.17,25.63,1.17,46.61v33.94h-10.36v-98.2h10.83l5.7,14.3l-7.03,3.34H559.75z"/>
<path class="st0" d="M1184.18,644.06c0,20.26,4,40.37,16.62,40.37l0.2,9.84c-0.33,0.04-0.63,0.04-0.97,0.04
	c-16.59,0-27.71-17.32-27.71-50.39c0-29.55,9.83-46.83,24.75-49.7l1.33,9.69C1187.68,606.24,1184.18,625.33,1184.18,644.06z"/>
<path class="st0" d="M638.39,693.36c-1.97,0.25-4.03,0.36-6.16,0.36c-4.6,0-9.33-0.29-12.72-1.02v-96.27
	c4.43-1.31,9.63-1.92,15.39-1.92c0.5,0,1,0,1.5,0.04l-0.13,9.15c-1.8,0-3.86,0.15-5.36,0.58v79.68c1.63,0.33,3.26,0.33,4.3,0.33
	c0.8,0,1.57-0.04,2.36-0.11L638.39,693.36z"/>
<path class="st0" d="M1113.03,593.78c17.05,0,27.28,18.22,27.28,49.55c0,36.12-12.39,50.42-27.98,50.93l-0.2-9.84
	c12.89,0,16.32-21.42,16.32-40.66c0-18.37-3.43-40.08-16.45-40.08c-0.77,0-1.53,0.07-2.23,0.22l-1.37-9.69
	C1109.9,593.93,1111.43,593.78,1113.03,593.78z"/>
<path class="st1" d="M676.23,576.03c-0.03,0.11-0.03,0.22-0.07,0.33C676.2,576.14,676.23,576.03,676.23,576.03z"/>
<path class="st0" d="M696.75,660.8c0,17.64,5.93,23.63,13.62,23.63l0.23,9.87c-0.17,0-0.37,0-0.53,0
	c-14.96,0-24.75-9.58-24.75-33.94v-65.42h11.42V660.8z"/>
<path class="st0" d="M442.77,634.19c0,21.27,1.83,19.78-19.12,19.71l0.03-9.84c8.56,0,8.99-0.83,9.16-9.66c0-0.07,0-0.15,0-0.22
	H442.77z"/>
<path class="st0" d="M751.01,680.18c3.4,2.18,9.33,3.92,14.36,3.92c10.39,0,16.62-6.68,16.62-16.59c0-9.04-5.33-14.56-13.19-20.4
	c-7.86-5.37-18.85-14.56-18.85-27.23c0-14.88,10.53-25.81,26.41-25.81c6.23,0,11.69,1.92,14.06,3.67l-2.8,9.62
	c-2.53-1.78-6.66-3.38-11.86-3.38c-9.79,0-14.39,7.3-14.39,14.01c0,9.73,5.2,13.54,14.69,20.22c11.99,8.31,17.35,17.35,17.35,28.28
	c0,16.88-12.16,27.52-28.05,27.52c-6.79,0-14.09-2.18-16.89-4.21L751.01,680.18z"/>
<path class="st0" d="M1095.55,644.06c0,20.26,4,40.37,16.59,40.37l0.2,9.84c-0.3,0.04-0.63,0.04-0.93,0.04
	c-16.62,0-27.75-17.32-27.75-50.39c0-29.55,9.83-46.79,24.75-49.7l1.37,9.69C1099.04,606.24,1095.55,625.33,1095.55,644.06z"/>
<path class="st0" d="M1072.56,685.88c0,5.08-2.83,8.42-7.56,8.42c-4.3,0-7.56-3.34-7.56-8.42c0-4.97,3.4-8.46,7.56-8.46
	C1069.6,677.42,1072.56,680.76,1072.56,685.88z"/>
<path class="st0" d="M954.92,623.44l-8.93,21.78l-7.16-3.48c2.07-7.59,4.6-15.03,7.26-22.58L954.92,623.44z"/>
<path class="st0" d="M735.58,594.95v64.11c0,25.19-10.43,34.99-24.98,35.25l-0.23-9.87c8.46,0,13.79-6.43,13.79-23.63v-65.85H735.58
	z"/>
<path class="st0" d="M590.89,693.14l-18.99-47.19c-4-9.91-8.29-21.13-11.86-33.36l7.03-3.34l12.69,31.76
	c4.13,10.49,9.33,23.6,12.72,34.23h0.3c-0.87-15.46-1.33-28.13-1.33-45.16v-35.14h10.23v98.2H590.89z"/>
<path class="st1" d="M773.59,359.09c0.17-0.25,0.33-0.51,0.47-0.8C773.92,358.58,773.76,358.84,773.59,359.09z"/>
<path class="st0" d="M1201.67,593.78c17.05,0,27.28,18.22,27.28,49.55c0,36.12-12.39,50.39-27.95,50.93l-0.2-9.84
	c12.89,0,16.29-21.42,16.29-40.66c0-18.37-3.4-40.08-16.45-40.08c-0.77,0-1.53,0.07-2.23,0.22l-1.33-9.69
	C1198.53,593.93,1200.1,593.78,1201.67,593.78z"/>
<path class="st0" d="M875.38,641.74c10.96,0,18.22-7.88,18.22-19.68c0-11.36-4.73-18.37-17.05-18.51l0.23-9
	c9.39,0.11,16.45,2.21,21.42,6.97c4.9,4.97,6.99,11.51,6.99,19.24c0,12.52-5.96,20.69-16.02,25.19v0.29
	c7.39,2.18,11.26,9.18,13.49,22c2.23,13.54,4.3,21.85,5.63,24.9h-11.56c-1.5-2.9-3.43-12.23-5.33-24.32
	c-2.23-13.4-6.53-18.51-16.32-18.51v-8.57H875.38z"/>
<path class="st0" d="M1161.2,685.88c0,5.08-2.8,8.42-7.56,8.42c-4.3,0-7.56-3.34-7.56-8.42c0-4.97,3.43-8.46,7.56-8.46
	C1158.23,677.42,1161.2,680.76,1161.2,685.88z"/>
<path class="st1" d="M945.73,311.9c-0.7-0.04-1.4,0.07-2.03,0.36c-0.33,0.29-0.63,0.54-0.9,0.8l-8.46-4.76
	c2.73-2.83,5.83-5.37,8.89-7.51c3.33-2.36,10.59-2.58,13.39-0.15c2.83,2.5,4.66,11.11,2.86,14.19c-2.23,3.78-4.43,7.59-6.66,11.36
	l-9.36-3.81c0.5-0.65,1-1.38,1.57-2.07c0.33-0.58,1.4-2.54,1.63-3.16c0.83-1.6,0.77-1.27,1.4-3.38
	C947.52,312.3,947.09,312.01,945.73,311.9z"/>
<path class="st1" d="M1219.62,357.93c-1.97,7.15-3.33,10.09-4.66,12.56c-6.73,12.49-13.69,24.98-21.98,36.23
	c-18.35,24.94-36.14,21.49-46.9-8.53c-3.73-10.31-7.06-20.8-11.36-33.8c-0.53-1.63-2.16-2.69-3.93-2.47h-0.03
	c-6.79,4.39-9.63,10.24-12.06,15.39c-9.93,20.84-18.72,42.33-28.58,63.2c-1.57,3.34-3.03,5.59-6.06,8.1c-2.66,2-5.76,0.51-6.73-1.63
	c-1.73-6.93,0.07-11.54,1.63-22.33c1.23-6.46,2-8.89,3.36-16.52c0.17-0.25,0.07-0.83,0.1-1.16l0.57-7.12
	c-12.69,12.92-24.81,26.61-37.94,38.99c-10.76,10.16-23.35,17.1-37.67,9.69c-13.72-7.12-16.62-21.49-17.09-36.63
	c-0.07-2.11-0.4-4.25-1-10.67c0-0.11-0.2-0.18-0.27-0.07c-9.73,11.51-16.95,21.09-25.28,29.48c-6.3,6.35-13.52,12.16-21.18,16.37
	c-18.49,10.13-34.97,1.92-41-19.49c-0.8-2.87-1.27-5.84-2.5-11.58c-0.03,0-0.03,0-0.03,0c-5.96,10.13-10.26,18.59-15.55,26.17
	c-10.26,14.74-20.25,29.91-32.11,42.98c-5,5.48-16.02,10.35-21.35,7.88c-5.1-2.36-9.39-10.09-8.63-22.4
	c1.67-11.36,3.63-22.69,5.73-33.98l9.46,2.03c-2.17,11.8-2.96,23.92-4.26,35.94c-0.1,0.94,0.1,1.92,0.6,2.76
	c1.47,2.43,2.53,2.58,4.7,2.5c0.83-0.04,1.67-0.29,2.33-0.8c1.9-1.34,3.73-2.8,5.2-4.57c25.98-31.62,46.46-66.98,60.99-106.51
	c6.3-17.13,13.32-34.05,21.35-50.24c1.7-3.41,4.1-6.57,6.86-9.4l8.46,4.76c-1.83,1.74-1.97,2.76-2.93,4.5
	c-0.13,0.22-0.23,0.44-0.3,0.65c-0.97,2.65-2.03,3.16-2.26,9.04c3.16-1.16,4.66-2.87,6.16-4.86l9.36,3.81
	c-6.73,11.4-13.82,22.54-22.45,31.98c-14.49,15.94-19.69,34.31-18.79,55.32c1.07,24.18,15.09,32.09,32.48,17.32
	c24.61-20.87,47.33-43.56,57.59-78.01c2.8-9.29,9.13-28.02,20.05-42.91c5.6-7.62,9.23-12.71,18.02-11.29
	c4.93,1.82,7.19,2.21,9.66,9.47c1.93,19.2-19.72,40.95-29.04,51.11c-15.85,17.24-20.68,37.72-17.12,60.91
	c2.63,16.99,12.32,22.18,26.15,14.41c4.76-2.65,9.36-6.13,13.22-10.13c25.41-26.14,51.66-51.62,59.02-91.73
	c0.43-2.43,1.87-5.88,5.63-6.39c1.53-0.11,2.3,0.29,3.3,0.91c2.73,2.36,2.76,6.75,2.23,9.69c-2.03,10.89-5.43,21.53-6.96,34.05
	c2.7-3.16,5.5-6.17,8.06-9.44c13.56-17.53,26.08-15.72,34.81,5.41c2.86,7.01,4.2,14.77,7.36,21.56c2.9,6.24,5.63,13.29,10.33,17.75
	c1.07,1.71,3.36,2.11,4.93,0.87c6.96-2.65,11.46-8.28,15.69-13.76c6.89-8.97,12.92-18.84,19.35-28.24
	c1.63-2.36,5.66-7.26,9.06-12.49c1.23-1.05,6.1-5.74,6.99-5.63C1223.52,347.11,1219.85,356.84,1219.62,357.93z M1035.89,318.33
	c1-1.82,1.13-2.21,1.67-3.74c0-1.63-0.23-1.85-1.7-2.98c-1.37-0.15-2.1,0.47-3,1.38c-1.2,1.05-1.47,1.82-1.77,2.21
	c-0.77,0.91-2.66,4.39-3.16,5.34c-1.7,3.96-1.7,3.96-2.17,8.24c2.36-1.34,4.03-2.29,5.4-3.96
	C1031.96,323.92,1035.19,319.71,1035.89,318.33z"/>
<path class="st0" d="M1018.24,693.36c-2,0.25-4.03,0.36-6.16,0.36c-4.6,0-9.36-0.29-12.76-1.02v-96.27
	c4.43-1.31,9.63-1.92,15.42-1.92c0.5,0,1,0,1.47,0.04l-0.13,9.15c-1.8,0-3.86,0.15-5.33,0.58v79.68c1.63,0.33,3.26,0.33,4.3,0.33
	c0.8,0,1.57-0.04,2.36-0.11L1018.24,693.36z"/>
<polygon class="st0" points="966.54,594.95 954.92,623.44 946.09,619.16 954.55,594.95 "/>
<path class="st0" d="M671.83,641.74c0,22.43-5.63,34.67-12.02,41.35c-5.33,5.95-12.62,9.29-21.42,10.27l-0.83-9.18
	c11.72-1.09,22.42-10.85,22.42-42.15c0-24.79-7.73-38.33-23.72-38.33l0.13-9.15c9.76,0.22,16.72,2.83,21.95,7.41
	C666.04,608.52,671.83,621.19,671.83,641.74z"/>
<path class="st0" d="M389.88,634.48c0.03,21.06,1.73,19.35-19.15,19.46c-0.47,0-0.93,0-1.37,0c-21.95-0.15-19.85,1.82-20.02-20.04
	c0.17-21.89-1.97-20.15,19.88-20.11C392.08,613.82,389.85,611.5,389.88,634.48z M379.95,634.19c0.1-9.8-0.47-10.42-9.63-10.56
	c-10.06-0.18-10.79,0.44-11.03,9.18c-0.27,10.45,0.47,11.25,10.33,11.25C379.35,644.06,379.85,643.59,379.95,634.19z"/>
<path class="st1" d="M837.61,433.62c-0.37,1.67-0.7,3.34-1.03,5.01l-9.46-2.03c4.1-22.51,8.79-44.94,13.09-67.41
	c0.4-2.18,1.73-5.99,2.4-8.1c0.03-0.15,0.07-0.29,0.1-0.44c0.07-1.02,0.17-2.03,0.23-3.05l-2.1,1.42c-0.07,0.04-0.13,0.07-0.2,0.11
	c-8.69,3.96-17.12,9.22-26.15,11.65c-18.09,4.86-33.91-8.93-33.24-29.19c0.8-25.99,13.62-45.3,32.71-59.35
	c10.06-7.37,19.22-1.2,17.09,11.62c-2,12.27-6.66,24.1-11.06,35.72c-3.3,8.68-7.69,16.81-10.36,27.26c-0.3,1.13,0.87,2.11,1.93,1.6
	c5.76-2.58,11.56-5.05,17.15-8.02c4.43-2.36,8.19-6.46,12.76-8.42c3.93-1.67,8.23-3.16,12.62-2.87c1.47,0.29,1.93,0.73,2.43,1.74
	c2.56,5.15,1.9,9.87,0.87,14.27C851.13,381.38,843.4,407.23,837.61,433.62z M818.66,300.36c0.53-1.27-1-2.47-2.13-1.67
	c-15.79,11.44-23.42,28.9-19.69,45.99c0.27,1.31,2.13,1.45,2.66,0.22L818.66,300.36z"/>
<rect x="521.05" y="594.95" class="st2" width="11.42" height="98.2"/>
<path class="st2" d="M560.05,612.59h-0.3c0.87,13.1,1.17,25.63,1.17,46.61v33.94h-10.36v-98.2h10.83l5.7,14.3l12.69,31.76
	c4.13,10.49,9.33,23.6,12.72,34.23h0.3c-0.87-15.46-1.33-28.13-1.33-45.16v-35.14h10.23v98.2h-10.79l-18.99-47.19
	C567.91,636.04,563.61,624.82,560.05,612.59z"/>
<path class="st2" d="M638.39,693.36c-1.97,0.25-4.03,0.36-6.16,0.36c-4.6,0-9.33-0.29-12.72-1.02v-96.27
	c4.43-1.31,9.63-1.92,15.39-1.92c0.5,0,1,0,1.5,0.04c9.76,0.22,16.72,2.83,21.95,7.41c7.69,6.57,13.49,19.24,13.49,39.79
	c0,22.43-5.63,34.67-12.02,41.35C654.48,689.04,647.18,692.38,638.39,693.36z"/>
<path class="st2" d="M636.26,603.69c-1.8,0-3.86,0.15-5.36,0.58v79.68c1.63,0.33,3.26,0.33,4.3,0.33c0.8,0,1.57-0.04,2.36-0.11
	c11.72-1.09,22.42-10.85,22.42-42.15C659.98,617.23,652.25,603.69,636.26,603.69z"/>
<path class="st2" d="M710.6,694.3c-0.17,0-0.37,0-0.53,0c-14.96,0-24.75-9.58-24.75-33.94v-65.42h11.42v65.85
	c0,17.64,5.93,23.63,13.62,23.63c8.46,0,13.79-6.43,13.79-23.63v-65.85h11.42v64.11C735.58,684.25,725.16,694.05,710.6,694.3z"/>
<path class="st2" d="M751.01,680.18c3.4,2.18,9.33,3.92,14.36,3.92c10.39,0,16.62-6.68,16.62-16.59c0-9.04-5.33-14.56-13.19-20.4
	c-7.86-5.37-18.85-14.56-18.85-27.23c0-14.88,10.53-25.81,26.41-25.81c6.23,0,11.69,1.92,14.06,3.67l-2.8,9.62
	c-2.53-1.78-6.66-3.38-11.86-3.38c-9.79,0-14.39,7.3-14.39,14.01c0,9.73,5.2,13.54,14.69,20.22c11.99,8.31,17.35,17.35,17.35,28.28
	c0,16.88-12.16,27.52-28.05,27.52c-6.79,0-14.09-2.18-16.89-4.21L751.01,680.18z"/>
<polygon class="st2" points="818.46,605 800.2,605 800.2,594.95 848.1,594.95 848.1,605 829.85,605 829.85,693.14 818.46,693.14 "/>
<path class="st2" d="M875.08,650.31h-4.46v42.84h-11.39v-96.71c4.9-1.31,10.83-1.92,16.45-1.92c0.37,0,0.73,0,1.1,0.04
	c9.39,0.11,16.45,2.21,21.42,6.97c4.9,4.97,6.99,11.51,6.99,19.24c0,12.52-5.96,20.69-16.02,25.19v0.29
	c7.39,2.18,11.26,9.18,13.49,22c2.23,13.54,4.3,21.85,5.63,24.9h-11.56c-1.5-2.9-3.43-12.23-5.33-24.32
	C889.17,655.42,884.87,650.31,875.08,650.31z"/>
<path class="st2" d="M876.54,603.55c-2.2,0-4.43,0.15-5.93,0.58v37.61h4.46h0.3c10.96,0,18.22-7.88,18.22-19.68
	C893.6,610.7,888.87,603.69,876.54,603.55z"/>
<path class="st2" d="M945.99,645.22l-2.43,5.99v41.93h-11.39v-41.49l-21.95-56.7h11.99l8.89,24.65c2.53,6.82,5.2,14.56,7.43,22.14
	h0.3c2.07-7.59,4.6-15.03,7.26-22.58l8.46-24.21h11.99l-11.62,28.5L945.99,645.22z"/>
<path class="st2" d="M1018.24,693.36c-2,0.25-4.03,0.36-6.16,0.36c-4.6,0-9.36-0.29-12.76-1.02v-96.27
	c4.43-1.31,9.63-1.92,15.42-1.92c0.5,0,1,0,1.47,0.04c9.76,0.22,16.72,2.83,21.95,7.41c7.73,6.57,13.49,19.24,13.49,39.79
	c0,22.43-5.63,34.67-11.99,41.35C1034.33,689.04,1027.03,692.38,1018.24,693.36z"/>
<path class="st2" d="M1016.07,603.69c-1.8,0-3.86,0.15-5.33,0.58v79.68c1.63,0.33,3.26,0.33,4.3,0.33c0.8,0,1.57-0.04,2.36-0.11
	c11.69-1.09,22.38-10.85,22.38-42.15C1039.79,617.23,1032.09,603.69,1016.07,603.69z"/>
<path class="st2" d="M1108.4,594.22c1.5-0.29,3.03-0.44,4.63-0.44c17.05,0,27.28,18.22,27.28,49.55c0,36.12-12.39,50.42-27.98,50.93
	c-0.3,0.04-0.63,0.04-0.93,0.04c-16.62,0-27.75-17.32-27.75-50.39C1083.65,614.37,1093.48,597.12,1108.4,594.22z"/>
<path class="st2" d="M1109.77,603.91c-10.73,2.32-14.22,21.42-14.22,40.15c0,20.26,4,40.37,16.59,40.37
	c12.89,0,16.32-21.42,16.32-40.66c0-18.37-3.43-40.08-16.45-40.08C1111.23,603.69,1110.47,603.77,1109.77,603.91z"/>
<path class="st2" d="M1197.07,594.22c1.47-0.29,3.03-0.44,4.6-0.44c17.05,0,27.28,18.22,27.28,49.55
	c0,36.12-12.39,50.39-27.95,50.93c-0.33,0.04-0.63,0.04-0.97,0.04c-16.59,0-27.71-17.32-27.71-50.39
	C1172.32,614.37,1182.15,597.09,1197.07,594.22z"/>
<path class="st2" d="M1198.4,603.91c-10.73,2.32-14.22,21.42-14.22,40.15c0,20.26,4,40.37,16.62,40.37
	c12.89,0,16.29-21.42,16.29-40.66c0-18.37-3.4-40.08-16.45-40.08C1199.87,603.69,1199.1,603.77,1198.4,603.91z"/>
<path class="st4" d="M827.12,436.6c-2.1,11.29-4.06,22.62-5.73,33.98c-0.77,12.31,3.53,20.04,8.63,22.4
	c5.33,2.47,16.35-2.4,21.35-7.88c11.86-13.07,21.85-28.24,32.11-42.98c5.3-7.59,9.59-16.05,15.55-26.17c0,0,0,0,0.03,0
	c1.23,5.74,1.7,8.71,2.5,11.58c6.03,21.42,22.52,29.62,41,19.49c7.66-4.21,14.89-10.02,21.18-16.37
	c8.33-8.39,15.55-17.97,25.28-29.48c0.07-0.11,0.27-0.04,0.27,0.07c0.6,6.43,0.93,8.57,1,10.67c0.47,15.14,3.36,29.51,17.09,36.63
	c14.32,7.41,26.91,0.47,37.67-9.69c13.12-12.38,25.25-26.06,37.94-38.99l-0.57,7.12c-0.03,0.33,0.07,0.91-0.1,1.16
	c-1.37,7.62-2.13,10.06-3.36,16.52c-1.57,10.78-3.36,15.39-1.63,22.33c0.97,2.14,4.06,3.63,6.73,1.63c3.03-2.5,4.5-4.76,6.06-8.1
	c9.86-20.87,18.65-42.36,28.58-63.2c2.43-5.15,5.26-11,12.06-15.39h0.03c1.77-0.22,3.4,0.83,3.93,2.47c4.3,13,7.63,23.49,11.36,33.8
	c10.76,30.02,28.55,33.47,46.9,8.53c8.29-11.25,15.26-23.74,21.98-36.23c1.33-2.47,2.7-5.41,4.66-12.56
	c0.23-1.09,3.9-10.82,2.76-10.96c-0.9-0.11-5.76,4.57-6.99,5.63c-3.4,5.23-7.43,10.13-9.06,12.49c-6.43,9.4-12.46,19.28-19.35,28.24
	c-4.23,5.48-8.73,11.11-15.69,13.76c-1.57,1.23-3.86,0.83-4.93-0.87c-4.7-4.47-7.43-11.51-10.33-17.75
	c-3.16-6.79-4.5-14.56-7.36-21.56c-8.73-21.13-21.25-22.94-34.81-5.41c-2.56,3.27-5.36,6.28-8.06,9.44
	c1.53-12.52,4.93-23.16,6.96-34.05c0.53-2.94,0.5-7.33-2.23-9.69c-1-0.62-1.77-1.02-3.3-0.91c-3.76,0.51-5.2,3.96-5.63,6.39
	c-7.36,40.11-33.61,65.6-59.02,91.73c-3.86,3.99-8.46,7.48-13.22,10.13c-13.82,7.77-23.52,2.58-26.15-14.41
	c-3.56-23.2,1.27-43.67,17.12-60.91c9.33-10.16,30.98-31.91,29.04-51.11c-2.46-7.26-4.73-7.66-9.66-9.47
	c-8.79-1.42-12.42,3.67-18.02,11.29c-10.93,14.88-17.25,33.62-20.05,42.91c-10.26,34.45-32.98,57.14-57.59,78.01
	c-17.39,14.77-31.41,6.86-32.48-17.32c-0.9-21.02,4.3-39.39,18.79-55.32c8.63-9.44,15.72-20.58,22.45-31.98
	c2.23-3.78,4.43-7.59,6.66-11.36c1.8-3.09-0.03-11.69-2.86-14.19c-2.8-2.43-10.06-2.21-13.39,0.15c-3.06,2.14-6.16,4.68-8.89,7.51
	c-2.76,2.83-5.16,5.99-6.86,9.4c-8.03,16.19-15.06,33.11-21.35,50.24c-14.52,39.53-35.01,74.89-60.99,106.51
	c-1.47,1.78-3.3,3.23-5.2,4.57c-0.67,0.51-1.5,0.76-2.33,0.8c-2.17,0.07-3.23-0.07-4.7-2.5c-0.5-0.83-0.7-1.82-0.6-2.76
	c1.3-12.02,2.1-24.14,4.26-35.94c0.33-1.67,0.67-3.34,1.03-5.01c5.8-26.39,13.52-52.24,19.79-78.48c1.03-4.39,1.7-9.11-0.87-14.27
	c-0.5-1.02-0.97-1.45-2.43-1.74c-4.4-0.29-8.69,1.2-12.62,2.87c-4.56,1.96-8.33,6.06-12.76,8.42c-5.6,2.98-11.39,5.45-17.15,8.02
	c-1.07,0.51-2.23-0.47-1.93-1.6c2.66-10.45,7.06-18.59,10.36-27.26c4.4-11.62,9.06-23.45,11.06-35.72
	c2.13-12.81-7.03-18.99-17.09-11.62c-19.09,14.05-31.91,33.36-32.71,59.35c-0.67,20.26,15.16,34.05,33.24,29.19
	c9.03-2.43,17.45-7.7,26.15-11.65c0.07-0.04,0.13-0.07,0.2-0.11l2.1-1.42c-0.07,1.02-0.17,2.03-0.23,3.05
	c-0.03,0.15-0.07,0.29-0.1,0.44c-0.67,2.11-2,5.92-2.4,8.1C835.91,391.66,831.21,414.09,827.12,436.6z"/>
<path class="st4" d="M1027.93,320.54c0.5-0.94,2.4-4.43,3.16-5.34c0.3-0.4,0.57-1.16,1.77-2.21c0.9-0.91,1.63-1.52,3-1.38
	c1.47,1.13,1.7,1.34,1.7,2.98c-0.53,1.52-0.67,1.92-1.67,3.74c-0.7,1.38-3.93,5.59-4.73,6.5c-1.37,1.67-3.03,2.61-5.4,3.96
	C1026.23,324.5,1026.23,324.5,1027.93,320.54z"/>
<path class="st4" d="M942.79,313.06c0.27-0.25,0.57-0.51,0.9-0.8c0.63-0.29,1.33-0.4,2.03-0.36c1.37,0.11,1.8,0.4,2.33,1.89
	c-0.63,2.11-0.57,1.78-1.4,3.38c-0.23,0.62-1.3,2.58-1.63,3.16c-0.57,0.69-1.07,1.42-1.57,2.07c-1.5,2-3,3.7-6.16,4.86
	c0.23-5.88,1.3-6.39,2.26-9.04c0.07-0.22,0.17-0.44,0.3-0.65C940.83,315.82,940.96,314.8,942.79,313.06z"/>
<path class="st4" d="M799.5,344.9c-0.53,1.23-2.4,1.09-2.66-0.22c-3.73-17.1,3.9-34.56,19.69-45.99c1.13-0.8,2.66,0.4,2.13,1.67
	L799.5,344.9z"/>
<g>
	<path class="st5" d="M269.32,476.07h-25.01c0,0,3.41-17.05,1.14-29.56c-2.27-12.51-3.41-19.33,0-30.7
		c1.14-12.51-3.41-31.84-3.41-23.88c-4.55,2.27-9.1,2.27-12.51,1.14c0,0,1.14,5.68-3.41,5.68s-5.68-5.68-4.55-2.27
		c1.14,3.41-9.1,4.55-13.64,4.55c-4.55,0,6.82,4.55,6.82,4.55s7.96,2.27,7.96,5.68c0,3.41,4.55,6.82-3.41,10.23
		s-9.1-6.82-10.23-3.41s1.14,6.82-2.27,9.1c-3.41,2.27-9.1-2.27-10.23-5.68c0,0-1.14,9.1-4.55,7.96
		c-3.41-1.14-22.74-2.27-22.74-2.27s-3.41-1.14,0,0c3.41-2.27-14.78,1.14-11.37-9.1c3.41-10.23,10.23-1.14,12.51-11.37
		c-6.82,0-5.68,3.41-10.23-6.82c-5.68,3.41,1.14,11.37-5.68,9.1c-1.14,4.55-4.55,3.41-12.51,2.27c-6.82,2.27-4.55,3.41-10.23,3.41
		c-6.82-6.82-4.55,1.14-9.1-1.14c-4.55-2.27,3.41-2.27,2.27-10.23c-1.14-7.96-3.41,5.68-6.82,2.27s-10.94-0.05-5.68-4.55
		c4.15-3.55,6.24-4.98,0-11.37c-4.55-1.14-4.55,10.23-7.96,4.55c-3.41-5.68-6.82,3.41-9.1-3.41c-2.27-6.82-7.96-5.68-5.68-11.37
		c-3.41-6.82-1.14-11.37,3.41-18.19c4.55-6.82,18.19,4.55,21.6,0c3.41-4.55,1.14-14.78,6.82-14.78c5.68,0,14.78,3.41,15.92,6.82
		s4.55,3.41,5.68,1.14c1.14-2.27-1.14-6.82,1.14-7.96c2.27-1.14,9.1-2.27,12.51-14.78c-1.14-5.68-14.78-4.55-12.51-2.27
		c2.27,2.27-6.82,10.23-15.92,4.55c-2.27-7.96,10.23-5.68,0-12.51c-9.1-1.14-7.96,10.23-9.1,12.51c2.27,1.14-12.51,9.1-19.33,1.14
		c-2.27-7.96,4.55-4.55-4.55-13.64c-6.82,1.14-9.1,20.47-13.64,11.37c-5.68-3.41-7.96,5.68-10.23-4.55c2.27-5.68,6.82-1.14,0-11.37
		c-4.55,3.41,0,9.1-7.96-2.27c-4.55-9.1,6.82-12.51,6.82-7.96s9.1-14.78,3.41-15.92c-5.68-1.14-1.14-6.82-13.64-6.82
		c-5.68-3.41,4.55-7.96,12.51-7.96c4.55-2.27,3.41-10.23,0-10.23c0,0,9.1-6.82,17.05-6.82s13.64-6.82,9.1-11.37
		c-4.55-4.55,20.47-2.27,20.47,0s3.41,6.82,7.96,7.96c4.55,1.14,17.05-3.41,18.19,0c1.14,3.41,4.55,11.37,7.96,11.37
		c3.41,0,9.1,3.41,10.23,0c1.14-3.41,5.68-9.1,10.23-7.96c4.55,1.14,1.14,3.41,5.68,2.27c4.55-1.14,3.41-13.64,1.14-13.64
		c-2.27,0-9.1,3.41-12.51-2.27c-3.41-5.68-5.68,9.1-10.23,1.14c-4.55-7.96,5.68-5.68,0-9.1c-5.68-3.41-9.1,4.55-15.92-12.51
		c1.14-5.68,6.82,2.27,5.68-5.68s-5.68-9.1-6.82-7.96c-1.14,1.14-1.14-9.1,5.68-9.1s12.51,1.14,12.51-2.27
		c0-3.41,3.41-11.37,7.96-9.1c4.55,2.27,14.78-3.41,15.92,2.27c1.14,5.68,5.68,0,6.82,3.41c1.14,3.41,1.14,12.51,3.41,11.37
		s7.96-9.1,11.37-7.96c3.41,1.14,9.1-6.82,10.23-2.27c1.14,4.55,7.96-5.68,5.68-6.82c-2.27-1.14-11.37-4.55-9.1-7.96
		s7.96-3.41,10.23-2.27c2.27,1.14,2.27-6.82,0-9.1c-2.27-2.27,6.82-1.14,6.82-2.27s1.14-6.82,3.41-4.55
		c2.27,2.27,10.23,4.55,11.37,6.82c1.14,2.27,17.05,3.41,15.92,6.82c-1.14,3.41,13.64-5.68,13.64-7.96c0-2.27,7.96,9.1,5.68,10.23
		s4.55,9.1,5.68,9.1s0,5.68-1.14,7.96s2.27,0,4.55-1.14c2.27-1.14,0,4.55,2.27,6.82c2.27,2.27,9.1-12.51,17.05-12.51
		c7.96,0,6.82,5.68,9.1,6.82s6.82-3.41,7.96-5.68s1.14,6.82,2.27,6.82s3.41-2.27,5.68,0s0-1.14,0,5.68s5.68,1.14,9.1-1.14
		c3.41-2.27,0,10.23-2.27,10.23c-2.27,0-4.55,2.27-4.55,4.55c0,2.27,6.82-1.14,6.82,1.14c0,2.27-1.14,13.64-3.41,12.51
		c-2.27-1.14-6.82,5.68-7.96,3.41c-1.14-2.27-21.6,4.55-18.19,5.68s7.96,7.96,6.82,9.1c-1.14,1.14-4.55,6.82-6.82,5.68
		c-2.27-1.14-7.96-3.41-9.1-2.27s-4.55,4.55-4.55,4.55s12.51,2.27,14.78,5.68s1.14,5.68,4.55,4.55s12.51-5.68,12.51-7.96
		s5.68-12.51,5.68-14.78s9.1,0,9.1,2.27s6.82-1.14,7.96-2.27c1.14-1.14,2.27,9.1,0,10.23c1.14,3.41,10.23-10.23,11.37-7.96
		c3.41-1.14,12.51-1.14,12.51,2.27c0,3.41,0,11.37-2.27,11.37s6.82-2.27,7.96,1.14s-1.14,15.92-3.41,15.92s0,9.1,3.41,10.23
		c3.41,1.14,12.51-9.1,14.78-6.82s5.68,18.19,1.14,21.6c-4.55,3.41-11.37,11.37-10.23,12.51s-6.82,0-6.82-2.27s-3.41,3.41-2.27,4.55
		c1.14,1.14-6.82-4.55-5.68-5.68s-1.14,7.96-3.41,7.96c-2.27,0-4.55-6.82-6.82-5.68s-1.14,5.68,0,7.96s10.23,2.27,12.51,3.41
		s12.51,0,13.64,1.14s6.82-11.37,11.37-12.51c4.55-1.14,10.23,1.14,11.37,3.41c1.14,2.27,7.96,1.14,9.1-1.14
		c1.14-2.27,5.68,7.96,3.41,7.96s9.1,0,11.37-2.27s3.41,19.33,0,19.33s4.55,11.37,5.68,11.37s-1.14,6.82-2.27,6.82
		s-5.68,4.55-6.82,4.55c-1.14,0-5.68,9.1-3.41,10.23s-10.23,1.14-11.37,0s-3.41,3.41-3.41,5.68c0,2.27-7.96-1.14-7.96-2.27
		s-9.1,3.41-7.96,5.68s-18.19-5.68-13.64,1.14c4.55,6.82,12.51,12.51,21.6,10.23c9.1-2.27-15.92,13.64-7.96,18.19
		c7.96,4.55-7.96-4.55-10.23-2.27c-2.27,2.27-2.27,6.82-4.55,6.82c-2.27,0-4.55-6.82-5.68-9.1s-5.68,0-9.1,1.14
		c-3.41,1.14-2.27,13.64-5.68,10.23s-9.1,9.1-11.37,2.27c-3.41,3.41-15.92,4.55-15.92,7.96c0,3.41-7.96,2.27-7.96,0
		c0-2.27-9.1-6.82-6.82-10.23c2.27-3.41-7.96,1.14-6.82,3.41s-14.78-9.1-12.51-18.19s4.55,9.1,9.1-1.14s0-13.64-2.27-12.51
		s-3.41,4.55-5.68,4.55s-4.55-3.41-4.55-4.55s-7.96,7.96-6.82,9.1s-11.37,0-11.37-2.27c0-2.27-5.92-9.83-3.41-10.23
		c1.86-0.3-2.98,14.81-6.82,19.33c-1.14-3.41-2.27,22.74-1.14,23.88S268.18,474.93,269.32,476.07z"/>
	<path class="st5" d="M298.88,314.62c-2.27,1.14-5.68,3.41-5.68,3.41s-2.27-5.68-4.55-5.68c-2.27,0-7.96,9.1-9.1,7.96
		s-1.14-9.1-3.41-5.68c-2.27,3.41-6.82,4.55-7.96,3.41c-1.14-1.14-1.14-11.37-2.27-7.96s-6.82,4.55-9.1,4.55
		c-2.27,0,2.27-11.37,0-9.1c-2.27,2.27-10.23,4.55-9.1,4.55s2.27-10.23-1.14-11.37c-3.41-1.14-3.41-5.68-4.55-5.68
		s-2.27-4.55-2.27-7.96c0-3.41,10.23,0,7.96,0c-2.27,0-1.14-7.96,0-6.82s9.1-3.41,6.82-4.55c-2.27-1.14,0-9.1,0-9.1
		s6.82,0,4.55-3.41c-2.27-3.41,13.64,2.27,12.51,0s4.55-5.68,4.55-2.27c0,3.41,6.82,6.82,5.68,5.68s2.27-3.41,2.27-3.41l9.1-3.41
		h4.55"/>
	<path class="st5" d="M170.4,372.6c-2.27-2.27,7.96-17.05,10.23-17.05c2.27,0,12.51,0,12.51-3.41c0-3.41,6.82-4.55,9.1-4.55
		s5.68-1.14,7.96-4.55s6.82-1.14,11.37,2.27c4.55,3.41,3.41,20.47,2.27,19.33c-1.14-1.14,5.68-10.23,5.68-7.96s10.23,2.27,7.96,2.27
		c-2.27,0,4.55-11.37,4.55-6.82c0,4.55,4.55,6.82,3.41,5.68c-1.14-1.14,6.82-10.23,5.68-2.27c-1.14,7.96,5.68,11.37,5.68,11.37
		s2.27,11.37,0,12.51c-2.27,1.14-4.55,3.41-4.55,5.68s-6.82,3.41-6.82,3.41c-3.41,1.14-3.41,3.41-3.41,3.41"/>
	<path class="st5" d="M265.91,381.7c0,0,4.55-10.23,3.41-13.64c-1.14-3.41,2.27-21.6,3.41-21.6c1.14,0,9.1-10.23,9.1-13.64
		c0-3.41-2.27-12.51-2.27-12.51"/>
	<path class="st5" d="M293.2,318.03l-3.41,5.68c0,0,3.41,10.23,0,10.23c-3.41,0-6.82,10.23-6.82,12.51s9.1-10.23,13.64-9.1
		s13.64-1.14,13.64-4.55c0-3.41,0-14.78,3.41-18.19"/>
	<path class="st5" d="M321.62,315.76c0,0-6.82,11.37-4.55,12.51s7.96-1.14,10.23-3.41"/>
	<path class="st5" d="M340.95,328.26c0,0-17.05,4.55-13.64,6.82c3.41,2.27,7.96,9.1,10.23,11.37c2.27,2.27,5.68,6.82,3.41,7.96
		s5.68-1.14,12.51,0"/>
	<path class="st5" d="M292.06,352.14c0,0,21.6-11.37,25.01-10.23s15.92,10.23,14.78,12.51"/>
	<path class="st5" d="M276.14,377.15c0,0,3.41-10.23,6.82-9.1s6.82-7.96,6.82-7.96s5.68-1.14,5.68,2.27c0,3.41,4.55-3.41,5.68-4.55
		s0,3.41,2.27,4.55c2.27,1.14,5.68-4.55,9.1-4.55s-2.27,5.68,1.14,5.68s12.51-2.27,13.64-2.27"/>
	<path class="st5" d="M164.72,364.64c0,0,3.41-10.23,5.68-10.23s3.41-3.41,7.96-7.96c4.55-4.55,1.14-3.41,0-6.82"/>
	<line class="st5" x1="170.4" y1="339.63" x2="176.79" y2="348.12"/>
	<path class="st5" d="M162.45,296.43c0,0,9.1-6.82,14.78-5.68s-3.41,5.68,0,7.96c3.41,2.27,9.1-1.14,12.51,0
		c3.41,1.14-3.41,9.1,0,9.1c3.41,0,5.68,4.55,6.82,7.96c1.14,3.41,11.37,1.14,13.64,1.14s3.41,10.23,7.96,11.37
		s9.1,10.23,10.23,11.37s4.55,4.55,4.55,6.82"/>
	<path class="st5" d="M180.64,324.85c0,0,13.64,5.68,17.05-7.96"/>
	<path class="st5" d="M224.98,281.65c0,0-6.82,6.82-7.96,9.1s-4.55,15.92,0,19.33c3.9,2.93,6.73,8.3,7.53,12.89
		c0.16,0.95,0.92,1.67,1.88,1.78c4.24,3.52,9.93,8.07,11.06,10.34c0,2.27,3.41,7.96,4.55,6.82s1.14-21.6,5.68-23.88"/>
	<path class="st5" d="M205.65,298.7c0,0,5.68,11.37,4.55,11.37s-7.96,4.55-9.1,2.27s-7.07-1.8-7.07-1.8"/>
	<path class="st5" d="M202.24,290.74c0,0-1.14-10.23,4.55-9.1c5.68,1.14,0,5.68,2.27,6.82s12.51-9.1,13.64-11.37"/>
	<path class="st5" d="M255.68,347.59c0,0-6.82-18.19,0-23.88s3.41-9.1,3.41-9.1"/>
	<path class="st5" d="M230.66,320.3c0,0,11.37-12.51,11.37-17.05c0-4.55-11.37-14.78-11.37-14.78"/>
	<path class="st5" d="M223.84,290.74c0,0,6.82,3.41,6.82,5.68s3.41,9.1,0,11.37"/>
	<path class="st5" d="M230.66,206.61c-1.14,2.27-10.23,6.82-11.37,0s-4.57-7.52-4.57-7.52"/>
</g>
<path class="st0" d="M349.71,700.62c-35.71,0-71.45,0.04-107.15-0.04c-15.55,0-15.92-0.07-15.62-14.85
	c0.7-30.64,1.7-61.31,2.8-91.95c0.67-17.79,1.8-35.58,2.7-53.36c0.97-18.26,5.8-63.42,5.8-63.42s0.37,0,1.07,0
	c4.2-0.04,19.85-0.11,30.34-0.11c5.03,0,8.86,0.04,9.66,0.11c0.6,5.41,1.7,13.94,2.2,19.39c1,10.89,1.93,21.78,2.63,32.71
	c1.03,16.41,1.87,32.82,2.83,49.23c0.43,7.41,1.2,8.02,8.13,4.47c21.75-11.04,43.3-22.54,65.05-33.58
	c21.35-10.78,21.42-10.64,21.45,12.49c0,6.43-0.03,12.85,0.13,19.28c0.13,3.63,1.8,4.79,5.4,2.94c7.36-3.81,14.96-7.19,22.25-11.11
	c17.02-9.11,33.91-18.51,50.86-27.73c9.83-5.37,13.09-3.59,13.12,7.88c0.17,45.49,0.17,90.97,0,136.46
	c-0.03,10.89-0.4,11.11-12.36,11.14C423.89,700.69,386.78,700.62,349.71,700.62z M248.55,690.71c33.41,0.11,66.82,0.04,100.19,0.04
	c33.87,0,67.72,0.04,101.59-0.04c12.96,0,13.09-0.11,13.12-12.71c0.07-35.87,0.03-71.7-0.03-107.56c0-4.47-0.53-8.93-0.83-13.43
	c-3.46,2.07-6.86,4.28-10.43,6.17c-19.59,10.24-39.17,20.44-58.79,30.6c-3.3,1.71-6.56,3.41-9.96,4.9
	c-11.32,4.9-14.22,3.19-14.56-8.57c-0.17-5.95-0.03-11.94-0.03-17.9c-0.03-14.38-0.1-14.56-13.19-7.8
	c-21.68,11.18-43.3,22.58-64.85,33.98c-10.03,5.3-13.19,3.67-13.79-7.44c-0.93-16.88-1.83-33.76-2.83-50.6
	c-0.87-15.07-2.03-30.06-2.7-45.12c-0.27-5.52-2.9-7.15-7.89-6.97c-3.7,0.18-7.43,0.18-11.12,0.04c-5.4-0.25-7.13,2.4-7.33,7.51
	c-0.73,19.17-1.73,38.33-2.73,57.5c-0.8,15.03-2,30.06-2.63,45.12c-1.13,26.97-2.17,53.94-2.83,80.95
	C236.63,690.49,237.09,690.67,248.55,690.71z"/>
</svg>
